# xmcd
#
# Track frame offsets:
#	150
#	16938
#	34964
#	49894
#	69219
#	86783
#	96334
#	114822
#	126428
#	148451
#	163470
#
# Disc length: 2360 seconds
#
# Revision: 0
# Processed by: cddbd v1.5.2PL0 Copyright (c) Steve Scherf et al.
# Submitted via: EZCDAudioConverter 1.2.5.1
#
DISCID=a009360b
DTITLE=Stan Webb's Chicken Shack - That's the Way We Are
DYEAR=1979
DGENRE=Blues
TTITLE0=The End
TTITLE1=High Cost of Love
TTITLE2=Doesn't Matter About Your Size
TTITLE3=It Wasn't Me
TTITLE4=You'll Be Mine
TTITLE5=Sillyness
TTITLE6=Little Bird
TTITLE7=Rich Man's Blues
TTITLE8=Emily
TTITLE9=Let Me Love
TTITLE10=Shake Your Money Maker
EXTD=
EXTT0=
EXTT1=
EXTT2=
EXTT3=
EXTT4=
EXTT5=
EXTT6=
EXTT7=
EXTT8=
EXTT9=
EXTT10=
PLAYORDER=
